<?xml version="1.0" encoding="utf-8"?>
<!-- Generator: Adobe Illustrator 16.0.0, SVG Export Plug-In . SVG Version: 6.00 Build 0)  -->
<!DOCTYPE svg PUBLIC "-//W3C//DTD SVG 1.1//EN" "http://www.w3.org/Graphics/SVG/1.1/DTD/svg11.dtd">
<svg version="1.1" id="圖層_1" xmlns="http://www.w3.org/2000/svg" xmlns:xlink="http://www.w3.org/1999/xlink" x="0px" y="0px"
	 width="421.092px" height="98.014px" viewBox="0 0 421.092 98.014" enable-background="new 0 0 421.092 98.014"
	 xml:space="preserve">
<g>
	
		<image overflow="visible" enable-background="new    " width="128" height="128" xlink:href="280D924C5D13625B.png"  transform="matrix(0.6893 0 0 0.6893 2.441406e-04 4.8943)">
	</image>
	<g enable-background="new    ">
		<path fill="#3E5C44" d="M131.449,61.375l-10.312,1.846c1.621-7.344,2.432-13.408,2.432-18.193c0-3.477-0.82-6.719-2.461-9.727
			c-1.622-2.988-3.955-4.824-7.002-5.508c-3.535,4.648-5.303,10.566-5.303,17.754c0,0.43,0.088,0.703,0.264,0.82
			c0.156,0.137,0.742,0.293,1.758,0.469c0.996,0.176,2.304,0.293,3.926,0.352c-2.871,2.988-4.756,4.805-5.654,5.449l-1.289,0.029
			c-3.047,0-4.57-1.553-4.57-4.658c0-2.48,0.546-5.273,1.641-8.379c1.113-3.105,2.714-6.396,4.805-9.873
			c2.109-3.555,4.658-6.572,7.646-9.053c1.562,0.176,3.037,0.493,4.424,0.952c1.387,0.459,2.7,1.064,3.94,1.816
			c1.24,0.752,2.368,1.606,3.384,2.563c3.145,3.027,4.902,7.002,5.273,11.924c2.187-3.418,4.282-6.24,6.284-8.467
			c2.002-2.227,3.94-3.896,5.815-5.01c1.894-1.152,3.892-2.056,5.991-2.71c2.099-0.654,4.302-1.06,6.606-1.216
			c0.859,2.012,1.606,4.224,2.241,6.636c0.634,2.412,1.128,4.937,1.479,7.573c2.07-2.578,5.098-4.883,9.082-6.914
			c3.965-2.031,7.939-3.438,11.924-4.219c3.672,7.91,5.508,15.205,5.508,21.885c0,3.535-0.469,6.973-1.406,10.312
			c-0.918,3.281-2.197,7.061-3.838,11.338c-7.5,5.098-14.473,7.646-20.918,7.646c-3.809,0-8.164-1.143-13.066-3.428l-0.791-4.922
			c3.926,1.523,8.262,2.285,13.008,2.285c6.211,0,12.656-1.172,19.336-3.516c-0.352-11.113-2.5-22.773-6.445-34.98
			c-3.691,1.973-6.778,5.371-9.258,10.195c-2.52,4.824-3.995,11.143-4.424,18.955c-1.543,0.117-5.234,0.703-11.074,1.758
			c0.488-5.371,0.732-10.479,0.732-15.322c0-6.895-0.703-13.105-2.109-18.633C142.035,34.969,136.176,45.691,131.449,61.375z"/>
		<path fill="#3E5C44" d="M193.851,45.291l0.205-8.438l8.877,0.82l0.498,6.768c0.469-1.328,0.889-2.617,1.26-3.867
			c0.293-1.035,0.615-1.836,0.967-2.402c0.312-0.547,0.869-1.025,1.67-1.436c0.762-0.41,1.68-0.615,2.754-0.615
			c1.21,0,2.548,0.283,4.013,0.85l-0.967,3.721c-0.488,2.012-1.104,4.238-1.846,6.68c-2.343-1.543-3.925-2.432-4.746-2.666
			c-1.563,2.051-2.49,3.604-2.783,4.658c0.117,1.758,0.244,3.115,0.381,4.072c1.758,0.625,3.311,0.938,4.658,0.938
			c-0.82,2.305-1.827,4.824-3.018,7.559c-4.062,0-6.553-0.244-7.471-0.732c-0.957-0.469-1.953-1.27-2.988-2.402
			c-1.055-1.152-1.582-3.34-1.582-6.562C193.734,50.125,193.773,47.81,193.851,45.291z"/>
		<path fill="#3E5C44" d="M217.991,50.945c3.398,0.41,5.625,0.84,6.68,1.289c0.996,0.469,1.494,1.348,1.494,2.637
			c0,1.523-0.488,2.979-1.465,4.365c-0.996,1.406-2.1,2.109-3.311,2.109c-1.602,0-3.74-0.449-6.416-1.348
			C216.302,57.244,217.308,54.226,217.991,50.945z"/>
		<path fill="#3E5C44" d="M276.644,22.761l-6.445,21.855c3.906-6.582,8.154-11.699,12.744-15.352s8.301-5.879,11.133-6.68
			c0.234-0.078,0.449-0.137,0.645-0.176c1.035,0.332,2.344,1.016,3.926,2.051c2.09,3.652,3.135,7.334,3.135,11.045
			c0,5.605-0.889,10.43-2.666,14.473c-1.777,4.062-6.24,9.355-13.389,15.879l-1.201,0.059c-2.188,0-4.229-0.918-6.123-2.754
			c-0.918-0.879-1.494-1.387-1.729-1.523c-0.195-0.117-0.742-0.332-1.641-0.645c-0.625-0.234-1.113-0.42-1.465-0.557l5.83-8.848
			c3.613,0.664,7.266,1.445,10.957,2.344c0.039-1.602,0.059-2.451,0.059-2.549c0-8.008-1.689-14.609-5.068-19.805
			c-11.68,16.66-19.111,30.312-22.295,40.957l-13.535,5.215c0.137-1.23,0.322-2.388,0.557-3.472s0.62-2.617,1.158-4.6
			c0.537-1.982,1.103-3.931,1.699-5.845c0.596-1.914,1.4-4.385,2.416-7.412c3.496-10.215,6.416-17.588,8.76-22.119l-12.773,4.219
			l1.934-6.504c4.199-1.875,7.891-3.477,11.074-4.805s5.729-2.339,7.633-3.032S275.433,23.015,276.644,22.761z"/>
		<path fill="#3E5C44" d="M313.616,36.648c0.293,0.078,2.061,0.42,5.303,1.025c2.93,0.527,4.863,0.938,5.801,1.23
			c0.918,0.332,1.787,0.859,2.607,1.582s1.436,1.738,1.846,3.047c0.41,1.289,0.615,3.037,0.615,5.244l-0.146,8.613
			c0,1.016,0.098,2.207,0.293,3.574c-1.816,0.293-5.146,1.133-9.99,2.52c0.352-2.676,0.527-6.357,0.527-11.045
			c-0.332,0.547-1.299,1.699-2.9,3.457s-3.887,4.16-6.855,7.207c-2.285-0.605-4.043-1.191-5.273-1.758
			c-0.078-0.742-0.234-1.895-0.469-3.457c-0.332-2.441-0.498-4.648-0.498-6.621c0-2.852,0.596-5.254,1.787-7.207
			C307.415,42.127,309.866,39.656,313.616,36.648z M313.499,43.709l0.645,11.514c1.074-1.191,2.139-2.534,3.193-4.028
			s1.953-2.896,2.695-4.204C318.958,45.447,316.781,44.353,313.499,43.709z"/>
		<path fill="#3E5C44" d="M341.448,37.439l2.812-0.85v3.838c0.547-0.332,1.523-0.898,2.93-1.699c0.469-0.254,0.928-0.527,1.377-0.82
			l2.49-1.494c1.816,0.254,3.203,0.566,4.16,0.938c0.918,0.371,1.68,0.928,2.285,1.67c0.586,0.723,0.986,1.455,1.201,2.197
			c0.195,0.664,0.293,1.768,0.293,3.311c0,1.836-0.176,4.004-0.527,6.504c-0.371,2.656-0.576,4.941-0.615,6.855l-5.42,3.457
			l-0.82,0.557c-1.562,1.074-2.842,1.807-3.838,2.197c1.133-5.41,1.699-9.648,1.699-12.715c0-3.691-0.811-6.934-2.432-9.727
			c-0.059,0.078-0.41,0.43-1.055,1.055l-0.527,0.586l-1.201,1.201l0.146,16.846c-3.184,0.098-6.494,0.566-9.932,1.406
			c0-1.016,0.01-1.689,0.029-2.021c0.039-1.211,0.059-1.934,0.059-2.168v-0.674c-0.059-0.82-0.088-1.396-0.088-1.729v-6.914
			c0-3.496-0.059-6.631-0.176-9.404c0.254-0.078,0.547-0.171,0.879-0.278s0.708-0.229,1.129-0.366
			c0.42-0.137,0.863-0.293,1.332-0.469L341.448,37.439z"/>
		<path fill="#3E5C44" d="M388.294,61.345l-10.283,1.875c0.02-0.625,0.029-1.357,0.029-2.197c0-3.125-0.254-6.23-0.762-9.316
			c-0.664,1.25-2.012,3.008-4.043,5.273c-2.168,2.422-3.77,4.307-4.805,5.654c-1.992-0.605-3.643-1.201-4.951-1.787
			c-0.508-3.008-0.762-6.328-0.762-9.961c0-2.227,0.322-4.111,0.967-5.654c0.664-1.562,1.787-3.193,3.369-4.893
			s3.291-3.154,5.127-4.365c1.27,0.059,3.174,0.43,5.713,1.113c0.156-4.18,0.234-8.105,0.234-11.777
			c5.664-1.055,9.092-1.719,10.283-1.992c-0.703,7.871-1.055,16.406-1.055,25.605c0,2.266,0.084,4.473,0.25,6.621
			C387.772,57.693,388.001,59.627,388.294,61.345z M371.566,42.39l0.293,12.305c0.098-0.098,0.191-0.19,0.279-0.278
			s0.16-0.161,0.219-0.22c0.137-0.234,0.327-0.542,0.572-0.923c0.244-0.381,0.463-0.737,0.658-1.069l4.512-7.939
			C376.243,43.406,374.066,42.781,371.566,42.39z"/>
		<path fill="#3E5C44" d="M401.126,36.648c0.293,0.078,2.061,0.42,5.303,1.025c2.93,0.527,4.863,0.938,5.801,1.23
			c0.918,0.332,1.787,0.859,2.607,1.582s1.436,1.738,1.846,3.047c0.41,1.289,0.615,3.037,0.615,5.244l-0.146,8.613
			c0,1.016,0.098,2.207,0.293,3.574c-1.816,0.293-5.146,1.133-9.99,2.52c0.352-2.676,0.527-6.357,0.527-11.045
			c-0.332,0.547-1.299,1.699-2.9,3.457s-3.887,4.16-6.855,7.207c-2.285-0.605-4.043-1.191-5.273-1.758
			c-0.078-0.742-0.234-1.895-0.469-3.457c-0.332-2.441-0.498-4.648-0.498-6.621c0-2.852,0.596-5.254,1.787-7.207
			C394.925,42.127,397.376,39.656,401.126,36.648z M401.009,43.709l0.645,11.514c1.074-1.191,2.139-2.534,3.193-4.028
			s1.953-2.896,2.695-4.204C406.468,45.447,404.29,44.353,401.009,43.709z"/>
	</g>
</g>
</svg>
